<svg width="56" height="56" viewBox="0 0 56 56" fill="none" xmlns="http://www.w3.org/2000/svg">
<path fill-rule="evenodd" clip-rule="evenodd" d="M28 56C43.464 56 56 43.464 56 28C56 12.536 43.464 0 28 0C12.536 0 0 12.536 0 28C0 43.464 12.536 56 28 56ZM23.0628 37.6728C23.4728 38.0892 24.0281 38.3213 24.6093 38.3213C24.6245 38.3213 24.6375 38.3213 24.6527 38.3234C25.2491 38.3103 25.8131 38.0544 26.2143 37.612L40.9842 21.3456C41.7888 20.4564 41.7238 19.0857 40.8367 18.2811C39.9541 17.4786 38.5833 17.5415 37.7743 18.4285L24.5464 32.9967L18.1526 26.4988C17.3132 25.6443 15.9403 25.6356 15.0858 26.4728C14.2313 27.3143 14.2204 28.685 15.0598 29.5396L23.0628 37.6728Z" fill="white" fill-opacity="0.01"/>
</svg>
